<svg width="19" height="15" viewBox="0 0 19 15" fill="none" xmlns="http://www.w3.org/2000/svg">
<path d="M15.9231 1.63461C15.3444 1.36871 14.75 1.13801 14.14 0.94249C13.53 0.746974 12.9044 0.594472 12.2631 0.484983C12.2474 0.484983 12.2357 0.488894 12.2279 0.496714C12.2201 0.504535 12.2083 0.516266 12.1927 0.531907C12.1145 0.672678 12.0363 0.82518 11.9581 0.989413C11.8799 1.15365 11.8095 1.31397 11.7469 1.47038C11.0587 1.36089 10.3705 1.30615 9.68228 1.30615C8.99406 1.30615 8.30585 1.36089 7.61763 1.47038C7.55507 1.31397 7.48468 1.15365 7.40647 0.989413C7.32827 0.82518 7.24224 0.672678 7.14839 0.531907C7.14839 0.516266 7.14448 0.504535 7.13666 0.496714C7.12884 0.488894 7.11711 0.484983 7.10147 0.484983C6.46018 0.594472 5.83062 0.746974 5.21279 0.94249C4.59496 1.13801 4.0045 1.36871 3.44142 1.63461C3.42578 1.63461 3.41796 1.63461 3.41796 1.63461C3.41796 1.63461 3.41796 1.64244 3.41796 1.65808C2.82359 2.53399 2.33871 3.40208 1.96332 4.26235C1.58793 5.12261 1.29466 5.97897 1.0835 6.83142C0.872342 7.68387 0.743301 8.53241 0.696378 9.37703C0.649454 10.2217 0.665095 11.0663 0.743301 11.9109C0.743301 11.9109 0.747212 11.9148 0.755032 11.9226C0.762853 11.9305 0.766763 11.9422 0.766763 11.9578C1.53318 12.5209 2.29179 12.9823 3.04257 13.3421C3.79335 13.7018 4.5363 13.999 5.27144 14.2336C5.28708 14.2336 5.29882 14.2297 5.30664 14.2219C5.31446 14.2141 5.32619 14.2102 5.34183 14.2102C5.51388 13.9756 5.67421 13.7331 5.8228 13.4829C5.97139 13.2326 6.11607 12.9745 6.25684 12.7086C6.25684 12.693 6.25684 12.6773 6.25684 12.6617C6.25684 12.6461 6.24902 12.6382 6.23338 12.6382C5.98312 12.5444 5.74068 12.4388 5.50606 12.3215C5.27144 12.2042 5.04465 12.083 4.82567 11.9578C4.79439 11.9422 4.77874 11.9266 4.77874 11.9109C4.77874 11.8953 4.78656 11.8796 4.80221 11.864C4.84913 11.8327 4.89605 11.7975 4.94298 11.7584C4.9899 11.7193 5.03682 11.6841 5.08375 11.6528C5.09939 11.6372 5.11112 11.6294 5.11894 11.6294C5.12676 11.6294 5.13849 11.6294 5.15413 11.6294C5.88927 11.9735 6.64005 12.2316 7.40647 12.4036C8.15725 12.56 8.91585 12.6382 9.68228 12.6382C10.4487 12.6382 11.2151 12.56 11.9815 12.4036C12.7323 12.2316 13.4753 11.9735 14.2104 11.6294C14.2104 11.6294 14.2182 11.6294 14.2339 11.6294C14.2495 11.6294 14.2573 11.6372 14.2573 11.6528C14.3043 11.6841 14.3512 11.7193 14.3981 11.7584C14.445 11.7975 14.492 11.8327 14.5389 11.864C14.5545 11.8796 14.5623 11.8953 14.5623 11.9109C14.5623 11.9266 14.5545 11.9422 14.5389 11.9578C14.3199 12.083 14.0931 12.2042 13.8585 12.3215C13.6239 12.4388 13.3814 12.5444 13.1312 12.6382C13.1155 12.6382 13.1038 12.6461 13.096 12.6617C13.0882 12.6773 13.0921 12.693 13.1077 12.7086C13.2328 12.9745 13.3736 13.2326 13.53 13.4829C13.6864 13.7331 13.8507 13.9756 14.0227 14.2102C14.0227 14.2102 14.0305 14.2141 14.0462 14.2219C14.0618 14.2297 14.0775 14.2336 14.0931 14.2336C14.8282 13.999 15.5673 13.7018 16.3103 13.3421C17.0532 12.9823 17.8157 12.5209 18.5978 11.9578C18.5978 11.9422 18.6017 11.9305 18.6095 11.9226C18.6173 11.9148 18.6213 11.9109 18.6213 11.9109C18.7151 10.9412 18.7229 10.0027 18.6447 9.09549C18.5665 8.1883 18.414 7.30848 18.1872 6.45603C17.9604 5.60358 17.6593 4.77851 17.2839 3.9808C16.9085 3.1831 16.4628 2.40886 15.9466 1.65808C15.9466 1.64244 15.9427 1.63461 15.9349 1.63461C15.927 1.63461 15.9231 1.63461 15.9231 1.63461ZM6.70262 9.86973C6.24902 9.86973 5.86581 9.68986 5.55299 9.33011C5.24016 8.97036 5.08375 8.54023 5.08375 8.03971C5.08375 7.53919 5.24016 7.11296 5.55299 6.76103C5.86581 6.40911 6.24902 6.23314 6.70262 6.23314C7.15621 6.23314 7.53942 6.40911 7.85225 6.76103C8.16507 7.11296 8.32149 7.53919 8.32149 8.03971C8.32149 8.54023 8.16116 8.97036 7.84052 9.33011C7.51987 9.68986 7.14057 9.86973 6.70262 9.86973ZM12.6854 9.86973C12.2318 9.86973 11.8486 9.68986 11.5358 9.33011C11.2229 8.97036 11.0665 8.54023 11.0665 8.03971C11.0665 7.53919 11.2229 7.11296 11.5358 6.76103C11.8486 6.40911 12.2318 6.23314 12.6854 6.23314C13.139 6.23314 13.5222 6.40911 13.835 6.76103C14.1479 7.11296 14.3043 7.53919 14.3043 8.03971C14.3043 8.54023 14.1479 8.97036 13.835 9.33011C13.5222 9.68986 13.139 9.86973 12.6854 9.86973Z" fill="white"/>
</svg>
