<svg width="10" height="13" viewBox="0 0 10 13" fill="none" xmlns="http://www.w3.org/2000/svg">
<path d="M0.875 5.03027C0.875 4.4834 0.979818 3.97298 1.18945 3.49902C1.38997 3.01595 1.66797 2.59668 2.02344 2.24121C2.37891 1.88574 2.79818 1.60775 3.28125 1.40723C3.75521 1.19759 4.26562 1.09277 4.8125 1.09277C5.35938 1.09277 5.86979 1.19759 6.34375 1.40723C6.82682 1.60775 7.24609 1.88574 7.60156 2.24121C7.95703 2.59668 8.23503 3.01595 8.43555 3.49902C8.64518 3.97298 8.75 4.4834 8.75 5.03027C8.75 5.44043 8.71354 5.79818 8.64062 6.10352C8.56771 6.40885 8.46289 6.69824 8.32617 6.97168C8.18945 7.24512 8.02083 7.51628 7.82031 7.78516C7.61979 8.05404 7.37826 8.3571 7.0957 8.69434L4.8125 11.5518L2.5293 8.69434C2.24674 8.3571 2.00521 8.05632 1.80469 7.79199C1.60417 7.52767 1.43555 7.26335 1.29883 6.99902C1.16211 6.7347 1.05729 6.44759 0.984375 6.1377C0.911458 5.8278 0.875 5.45866 0.875 5.03027ZM4.8125 0.217773C4.14714 0.217773 3.52279 0.345378 2.93945 0.600586C2.35612 0.84668 1.8457 1.18848 1.4082 1.62598C0.970703 2.06348 0.628906 2.57389 0.382812 3.15723C0.127604 3.74056 0 4.36491 0 5.03027C0 5.52246 0.0432943 5.95768 0.129883 6.33594C0.216471 6.71419 0.341797 7.06738 0.505859 7.39551C0.669922 7.71452 0.865885 8.01986 1.09375 8.31152C1.32161 8.60319 1.56771 8.90853 1.83203 9.22754L1.8457 9.24121L4.4707 12.5225H5.1543L7.7793 9.24121C8.05273 8.9222 8.30339 8.61003 8.53125 8.30469C8.75911 7.99935 8.95508 7.68262 9.11914 7.35449C9.2832 7.02637 9.40853 6.67318 9.49512 6.29492C9.58171 5.91667 9.625 5.49512 9.625 5.03027C9.625 4.36491 9.4974 3.74056 9.24219 3.15723C8.99609 2.57389 8.6543 2.06348 8.2168 1.62598C7.7793 1.18848 7.26888 0.84668 6.68555 0.600586C6.10221 0.345378 5.47786 0.217773 4.8125 0.217773ZM3.5 5.03027C3.5 4.66569 3.6276 4.35579 3.88281 4.10059C4.13802 3.84538 4.44792 3.71777 4.8125 3.71777C5.17708 3.71777 5.48698 3.84538 5.74219 4.10059C5.9974 4.35579 6.125 4.66569 6.125 5.03027C6.125 5.39486 5.9974 5.70475 5.74219 5.95996C5.48698 6.21517 5.17708 6.34277 4.8125 6.34277C4.44792 6.34277 4.13802 6.21517 3.88281 5.95996C3.6276 5.70475 3.5 5.39486 3.5 5.03027ZM4.8125 2.84277C4.21094 2.84277 3.69596 3.05697 3.26758 3.48535C2.83919 3.91374 2.625 4.42871 2.625 5.03027C2.625 5.63184 2.83919 6.14681 3.26758 6.5752C3.69596 7.00358 4.21094 7.21777 4.8125 7.21777C5.41406 7.21777 5.92904 7.00358 6.35742 6.5752C6.78581 6.14681 7 5.63184 7 5.03027C7 4.42871 6.78581 3.91374 6.35742 3.48535C5.92904 3.05697 5.41406 2.84277 4.8125 2.84277Z" fill="#BCCBD6"/>
</svg>
