<svg width="19" height="19" viewBox="0 0 19 19" fill="none" xmlns="http://www.w3.org/2000/svg">
<path d="M9.67937 2.10943C10.8837 2.10943 11.6736 2.11334 12.049 2.12116C12.4244 2.12898 12.8467 2.14071 13.316 2.15635C13.7539 2.18763 14.1019 2.23456 14.36 2.29712C14.6181 2.35969 14.8253 2.42225 14.9818 2.48482C15.2007 2.56302 15.3923 2.65296 15.5566 2.75463C15.7208 2.8563 15.8811 2.98534 16.0375 3.14175C16.194 3.29816 16.323 3.45848 16.4247 3.62272C16.5263 3.78695 16.6163 3.97856 16.6945 4.19753C16.757 4.35394 16.8196 4.56119 16.8822 4.81927C16.9447 5.07735 16.9917 5.42537 17.0229 5.86333C17.0386 6.33256 17.0503 6.75488 17.0581 7.13027C17.066 7.50566 17.0699 8.29554 17.0699 9.49992C17.0699 10.7043 17.066 11.4942 17.0581 11.8696C17.0503 12.245 17.0386 12.6673 17.0229 13.1365C16.9917 13.5745 16.9447 13.9225 16.8822 14.1806C16.8196 14.4386 16.757 14.6459 16.6945 14.8023C16.6163 15.0213 16.5263 15.2129 16.4247 15.3771C16.323 15.5413 16.194 15.7017 16.0375 15.8581C15.8811 16.0145 15.7208 16.1435 15.5566 16.2452C15.3923 16.3469 15.2007 16.4368 14.9818 16.515C14.8253 16.5776 14.6181 16.6401 14.36 16.7027C14.1019 16.7653 13.7539 16.8122 13.316 16.8435C12.8467 16.8591 12.4244 16.8709 12.049 16.8787C11.6736 16.8865 10.8837 16.8904 9.67937 16.8904C8.475 16.8904 7.68511 16.8865 7.30972 16.8787C6.93433 16.8709 6.51202 16.8591 6.04278 16.8435C5.60483 16.8122 5.25681 16.7653 4.99873 16.7027C4.74065 16.6401 4.5334 16.5776 4.37699 16.515C4.15801 16.4368 3.96641 16.3469 3.80217 16.2452C3.63794 16.1435 3.47762 16.0145 3.32121 15.8581C3.16479 15.7017 3.03575 15.5413 2.93408 15.3771C2.83242 15.2129 2.74248 15.0213 2.66427 14.8023C2.60171 14.6459 2.53914 14.4386 2.47658 14.1806C2.41401 13.9225 2.36709 13.5745 2.33581 13.1365C2.32017 12.6673 2.30843 12.245 2.30061 11.8696C2.29279 11.4942 2.28888 10.7043 2.28888 9.49992C2.28888 8.29554 2.29279 7.50566 2.30061 7.13027C2.30843 6.75488 2.32017 6.33256 2.33581 5.86333C2.36709 5.42537 2.41401 5.07735 2.47658 4.81927C2.53914 4.56119 2.60171 4.35394 2.66427 4.19753C2.74248 3.97856 2.83242 3.78695 2.93408 3.62272C3.03575 3.45848 3.16479 3.29816 3.32121 3.14175C3.47762 2.98534 3.63794 2.8563 3.80217 2.75463C3.96641 2.65296 4.15801 2.56302 4.37699 2.48482C4.5334 2.42225 4.74065 2.35969 4.99873 2.29712C5.25681 2.23456 5.60483 2.18763 6.04278 2.15635C6.51202 2.14071 6.93433 2.12898 7.30972 2.12116C7.68511 2.11334 8.475 2.10943 9.67937 2.10943ZM9.67937 0.490557C8.45936 0.490557 7.65383 0.494467 7.2628 0.502287C6.87177 0.510107 6.44164 0.521839 5.9724 0.537479C5.48752 0.568762 5.07303 0.619596 4.72892 0.689981C4.38481 0.760368 4.06416 0.850306 3.76698 0.959793C3.48544 1.08492 3.21172 1.22569 2.94582 1.38211C2.67991 1.53852 2.42183 1.74186 2.17157 1.99212C1.92131 2.24238 1.71798 2.50046 1.56156 2.76636C1.40515 3.03226 1.26438 3.30598 1.13925 3.58752C1.02976 3.88471 0.939825 4.20535 0.869439 4.54946C0.799054 4.89357 0.74822 5.30806 0.716937 5.79294C0.701296 6.26218 0.689565 6.69231 0.681744 7.08334C0.673924 7.47437 0.670013 8.2799 0.670013 9.49992C0.670013 10.7199 0.673924 11.5255 0.681744 11.9165C0.689565 12.3075 0.701296 12.7377 0.716937 13.2069C0.74822 13.6918 0.799054 14.1063 0.869439 14.4504C0.939825 14.7945 1.02976 15.1151 1.13925 15.4123C1.26438 15.6939 1.40515 15.9676 1.56156 16.2335C1.71798 16.4994 1.92131 16.7575 2.17157 17.0077C2.42183 17.258 2.67991 17.4613 2.94582 17.6177C3.21172 17.7741 3.48544 17.9149 3.76698 18.04C4.06416 18.1495 4.38481 18.2395 4.72892 18.3099C5.07303 18.3802 5.48752 18.4311 5.9724 18.4624C6.44164 18.478 6.87177 18.4897 7.2628 18.4975C7.65383 18.5054 8.45936 18.5093 9.67937 18.5093C10.8994 18.5093 11.7049 18.5054 12.0959 18.4975C12.487 18.4897 12.9171 18.478 13.3864 18.4624C13.8712 18.4311 14.2857 18.3802 14.6298 18.3099C14.9739 18.2395 15.2946 18.1495 15.5918 18.04C15.8733 17.9149 16.147 17.7741 16.4129 17.6177C16.6788 17.4613 16.9369 17.258 17.1872 17.0077C17.4374 16.7575 17.6408 16.4994 17.7972 16.2335C17.9536 15.9676 18.0944 15.6939 18.2195 15.4123C18.329 15.1151 18.4189 14.7945 18.4893 14.4504C18.5597 14.1063 18.6105 13.6918 18.6418 13.2069C18.6575 12.7377 18.6692 12.3075 18.677 11.9165C18.6848 11.5255 18.6887 10.7199 18.6887 9.49992C18.6887 8.2799 18.6848 7.47437 18.677 7.08334C18.6692 6.69231 18.6575 6.26218 18.6418 5.79294C18.6105 5.30806 18.5597 4.89357 18.4893 4.54946C18.4189 4.20535 18.329 3.88471 18.2195 3.58752C18.0944 3.30598 17.9536 3.03226 17.7972 2.76636C17.6408 2.50046 17.4374 2.24238 17.1872 1.99212C16.9369 1.74186 16.6788 1.53852 16.4129 1.38211C16.147 1.22569 15.8733 1.08492 15.5918 0.959793C15.2946 0.850306 14.9739 0.760368 14.6298 0.689981C14.2857 0.619596 13.8712 0.568762 13.3864 0.537479C12.9171 0.521839 12.487 0.510107 12.0959 0.502287C11.7049 0.494467 10.8994 0.490557 9.67937 0.490557ZM9.70284 4.87793C9.06154 4.87793 8.45936 5.00306 7.89627 5.25332C7.33319 5.48794 6.84049 5.8164 6.41817 6.23872C5.99586 6.66103 5.66739 7.15373 5.43277 7.71681C5.18251 8.2799 5.05738 8.88209 5.05738 9.52338C5.05738 10.1647 5.18251 10.7669 5.43277 11.3299C5.66739 11.893 5.99586 12.3818 6.41817 12.7963C6.84049 13.2108 7.33319 13.5432 7.89627 13.7934C8.45936 14.0281 9.06154 14.1454 9.70284 14.1454C10.3441 14.1454 10.9463 14.0281 11.5094 13.7934C12.0725 13.5432 12.5613 13.2108 12.9758 12.7963C13.3903 12.3818 13.7226 11.893 13.9729 11.3299C14.2075 10.7669 14.3248 10.1647 14.3248 9.52338C14.3248 8.88209 14.2075 8.2799 13.9729 7.71681C13.7226 7.15373 13.3903 6.66103 12.9758 6.23872C12.5613 5.8164 12.0725 5.48794 11.5094 5.25332C10.9463 5.00306 10.3441 4.87793 9.70284 4.87793ZM9.70284 12.5265C8.87385 12.5265 8.16608 12.2332 7.57954 11.6467C6.99299 11.0601 6.69972 10.3524 6.69972 9.52338C6.69972 8.69439 6.99299 7.98663 7.57954 7.40008C8.16608 6.81353 8.87385 6.52026 9.70284 6.52026C10.5318 6.52026 11.2396 6.81353 11.8261 7.40008C12.4127 7.98663 12.706 8.69439 12.706 9.52338C12.706 10.3524 12.4127 11.0601 11.8261 11.6467C11.2396 12.2332 10.5318 12.5265 9.70284 12.5265ZM15.5448 4.66677C15.5448 4.96395 15.4393 5.21812 15.2281 5.42928C15.017 5.64044 14.7628 5.74602 14.4656 5.74602C14.1684 5.74602 13.9142 5.64044 13.7031 5.42928C13.4919 5.21812 13.3864 4.96395 13.3864 4.66677C13.3864 4.36959 13.4919 4.11933 13.7031 3.91599C13.9142 3.71265 14.1684 3.61099 14.4656 3.61099C14.7628 3.61099 15.017 3.71265 15.2281 3.91599C15.4393 4.11933 15.5448 4.36959 15.5448 4.66677Z" fill="white"/>
</svg>
