<svg width="17" height="17" viewBox="0 0 17 17" fill="none" xmlns="http://www.w3.org/2000/svg">
<path d="M1.06883 16.9141H4.1658V6.09814H1.06883V16.9141ZM2.54693 4.73735H2.52347C1.96039 4.73735 1.5107 4.55747 1.17441 4.19773C0.838126 3.83798 0.669983 3.3922 0.669983 2.8604C0.669983 2.3286 0.842037 1.88282 1.18614 1.52307C1.53025 1.16332 1.99167 0.983448 2.57039 0.983448C3.13348 0.983448 3.58317 1.16332 3.91945 1.52307C4.25574 1.88282 4.42388 2.3286 4.42388 2.8604C4.42388 3.3922 4.25574 3.83798 3.91945 4.19773C3.58317 4.55747 3.12566 4.73735 2.54693 4.73735ZM16.6006 16.9141H13.0813V11.3301C13.0813 10.595 12.9366 10.0006 12.6473 9.54703C12.3579 9.09344 11.9082 8.86664 11.2982 8.86664C10.8446 8.86664 10.4849 9.0035 10.219 9.27722C9.95306 9.55094 9.75755 9.85204 9.63242 10.1805C9.5855 10.29 9.56203 10.4229 9.56203 10.5794C9.56203 10.7358 9.56203 10.9 9.56203 11.0721V16.9141H6.06621C6.06621 16.9141 6.06621 16.3979 6.06621 15.3656C6.06621 14.3176 6.07012 13.1445 6.07795 11.8463C6.08577 10.5481 6.08968 9.32024 6.08968 8.16278C6.08968 7.00533 6.08186 6.31711 6.06621 6.09814H9.56203V7.78739C9.65588 7.42764 9.97262 7.04052 10.5122 6.62603C11.0519 6.21154 11.7675 6.00429 12.659 6.00429C13.7539 6.00429 14.6845 6.40314 15.451 7.20085C16.2174 7.99855 16.6006 9.23421 16.6006 10.9078V16.9141Z" fill="white"/>
</svg>
