<svg width="20" height="17" viewBox="0 0 20 17" fill="none" xmlns="http://www.w3.org/2000/svg">
<path d="M19.9087 8.32694C19.9087 7.73257 19.6976 7.23205 19.2753 6.82538C18.8529 6.41871 18.3524 6.21537 17.7737 6.21537C17.4921 6.21537 17.2223 6.26621 16.9643 6.36788C16.7062 6.46954 16.4833 6.61422 16.2956 6.80192C15.5761 6.31704 14.7393 5.93383 13.7852 5.65229C12.8311 5.37075 11.8066 5.20651 10.7117 5.15959L11.9082 1.42915L15.1225 2.17993V2.22685C15.1225 2.69609 15.2906 3.10276 15.6269 3.44687C15.9632 3.79098 16.3738 3.96303 16.8587 3.96303C17.3436 3.96303 17.7541 3.79098 18.0904 3.44687C18.4267 3.10276 18.5949 2.69609 18.5949 2.22685C18.5949 1.74197 18.4267 1.33139 18.0904 0.995106C17.7541 0.658818 17.3436 0.490675 16.8587 0.490675C16.4833 0.490675 16.1509 0.592343 15.8615 0.795679C15.5722 0.999016 15.3649 1.26492 15.2398 1.59338L11.7675 0.772218C11.6892 0.756577 11.6189 0.768308 11.5563 0.80741C11.4937 0.846514 11.4468 0.905169 11.4155 0.983375L10.1017 5.15959C8.95985 5.17523 7.88842 5.32382 6.88738 5.60536C5.88634 5.88691 5.00261 6.27794 4.23619 6.77846C4.04849 6.6064 3.83343 6.46563 3.59099 6.35614C3.34855 6.24666 3.08656 6.19191 2.80501 6.19191C2.22629 6.19191 1.72577 6.39916 1.30345 6.81365C0.88114 7.22814 0.669983 7.73257 0.669983 8.32694C0.669983 8.71797 0.767741 9.07381 0.963256 9.39446C1.15877 9.7151 1.41294 9.96145 1.72577 10.1335C1.71013 10.2586 1.69448 10.3759 1.67884 10.4854C1.6632 10.5949 1.65538 10.7122 1.65538 10.8374C1.65538 11.6194 1.88218 12.3546 2.33578 13.0428C2.78937 13.731 3.40329 14.3332 4.17753 14.8493C4.95178 15.3655 5.86288 15.7722 6.91084 16.0694C7.95881 16.3665 9.06933 16.5151 10.2424 16.5151C11.4312 16.5151 12.5495 16.3665 13.5975 16.0694C14.6298 15.7722 15.537 15.3655 16.3191 14.8493C17.1011 14.3332 17.7111 13.731 18.1491 13.0428C18.6027 12.3546 18.8295 11.6194 18.8295 10.8374C18.8295 10.7279 18.8256 10.6184 18.8177 10.5089C18.8099 10.3994 18.7982 10.2899 18.7826 10.1804C19.111 9.99273 19.3808 9.73856 19.592 9.41792C19.8031 9.09727 19.9087 8.73361 19.9087 8.32694ZM6.11314 9.78158C6.11314 9.43747 6.23436 9.14029 6.4768 8.89003C6.71924 8.63977 7.02033 8.51464 7.38008 8.51464C7.72419 8.51464 8.02137 8.63977 8.27163 8.89003C8.52189 9.14029 8.64702 9.43747 8.64702 9.78158C8.64702 10.1257 8.52189 10.4229 8.27163 10.6731C8.02137 10.9234 7.72419 11.0485 7.38008 11.0485C7.02033 11.0485 6.71924 10.9234 6.4768 10.6731C6.23436 10.4229 6.11314 10.1257 6.11314 9.78158ZM13.3629 13.512C13.05 13.8248 12.6395 14.0595 12.1311 14.2159C11.6228 14.3723 11.0089 14.4505 10.2894 14.4505C9.56985 14.4505 8.95594 14.3723 8.4476 14.2159C7.93925 14.0595 7.52867 13.8248 7.21585 13.512C7.15328 13.4495 7.122 13.3791 7.122 13.3009C7.122 13.2227 7.15328 13.1523 7.21585 13.0897C7.27841 13.0428 7.3488 13.0193 7.427 13.0193C7.50521 13.0193 7.5756 13.0428 7.63816 13.0897C7.90406 13.3556 8.25208 13.5511 8.68221 13.6762C9.11235 13.8014 9.64806 13.8639 10.2894 13.8639C10.9306 13.8639 11.4664 13.8014 11.8965 13.6762C12.3266 13.5511 12.6746 13.3556 12.9405 13.0897C13.0031 13.0428 13.0735 13.0193 13.1517 13.0193C13.2299 13.0193 13.3003 13.0428 13.3629 13.0897C13.4254 13.1523 13.4567 13.2227 13.4567 13.3009C13.4567 13.3791 13.4254 13.4495 13.3629 13.512ZM13.2221 11.0485C12.8623 11.0485 12.5612 10.9234 12.3188 10.6731C12.0764 10.4229 11.9551 10.1257 11.9551 9.78158C11.9551 9.43747 12.0764 9.14029 12.3188 8.89003C12.5612 8.63977 12.8623 8.51464 13.2221 8.51464C13.5662 8.51464 13.8595 8.63977 14.1019 8.89003C14.3443 9.14029 14.4656 9.43747 14.4656 9.78158C14.4656 10.1257 14.3443 10.4229 14.1019 10.6731C13.8595 10.9234 13.5662 11.0485 13.2221 11.0485Z" fill="white"/>
</svg>
