<svg width="18" height="16" viewBox="0 0 18 16" fill="none" xmlns="http://www.w3.org/2000/svg">
<path d="M1.84707 6.98379C2.98888 6.48327 4.03685 6.02968 4.99096 5.623C5.94508 5.20069 6.80144 4.8253 7.56004 4.49683C8.31864 4.16837 8.97948 3.88683 9.54257 3.65221C10.1213 3.40195 10.5984 3.19861 10.9737 3.0422C13.1479 2.13501 14.5947 1.55237 15.3142 1.29429C16.0337 1.03621 16.542 0.907168 16.8392 0.907168C16.9018 0.907168 16.9917 0.9189 17.109 0.942362C17.2263 0.965823 17.3319 1.01666 17.4258 1.09486C17.504 1.15743 17.5587 1.22781 17.59 1.30602C17.6213 1.38423 17.6447 1.45461 17.6604 1.51718C17.676 1.57974 17.6877 1.66968 17.6956 1.78699C17.7034 1.9043 17.6995 2.0177 17.6838 2.12719C17.6213 2.75284 17.5196 3.55836 17.3788 4.54376C17.2381 5.52916 17.0816 6.56539 16.9096 7.65246C16.7375 8.73952 16.5577 9.7914 16.37 10.8081C16.1979 11.8404 16.0415 12.7007 15.9007 13.3889C15.7912 13.9833 15.6387 14.3977 15.4432 14.6324C15.2477 14.867 15.0483 14.9921 14.845 15.0078C14.3914 15.039 13.973 14.9217 13.5897 14.6558C13.2065 14.3899 12.7959 14.1162 12.358 13.8347C11.6698 13.3811 11.0832 12.9861 10.5984 12.6498C10.1135 12.3136 9.53475 11.9186 8.86217 11.465C8.08011 10.9645 7.82985 10.5383 8.11139 10.1863C8.39293 9.83441 8.75268 9.43165 9.19064 8.97805C9.2532 8.91549 9.51128 8.68087 9.96488 8.2742C10.4028 7.85188 10.8838 7.39438 11.4078 6.90168C11.9318 6.40898 12.4049 5.95147 12.8272 5.52916C13.2652 5.10684 13.492 4.84876 13.5076 4.75492C13.5233 4.73927 13.5272 4.70017 13.5194 4.63761C13.5115 4.57504 13.4842 4.52812 13.4372 4.49683C13.3903 4.44991 13.3356 4.42645 13.273 4.42645C13.2104 4.42645 13.1557 4.43427 13.1088 4.44991C13.0775 4.46555 12.9133 4.56722 12.6161 4.75492C12.3345 4.92697 11.9161 5.19678 11.3609 5.56435C10.8056 5.93192 10.1291 6.38943 9.33141 6.93687C8.51806 7.46867 7.57959 8.09432 6.51598 8.81382C6.20316 9.0328 5.90206 9.19312 5.6127 9.29479C5.32334 9.39646 5.05353 9.44729 4.80327 9.44729C4.52172 9.44729 4.14633 9.38473 3.6771 9.2596C3.20786 9.13447 2.7699 9.00934 2.36323 8.88421C1.87835 8.71215 1.46777 8.56356 1.13148 8.43843C0.795196 8.3133 0.642694 8.11778 0.673976 7.85188C0.689618 7.71111 0.795196 7.56643 0.990712 7.41784C1.18623 7.26925 1.47168 7.12457 1.84707 6.98379Z" fill="white"/>
</svg>
