<svg width="21" height="15" viewBox="0 0 21 15" fill="none" xmlns="http://www.w3.org/2000/svg">
<path d="M20.2841 2.18303C20.2215 1.96405 20.1355 1.76071 20.026 1.57302C19.9165 1.38532 19.7836 1.21327 19.6272 1.05686C19.4708 0.900444 19.2987 0.767493 19.111 0.658005C18.9233 0.548516 18.72 0.47031 18.501 0.423386C18.11 0.313897 17.4843 0.22787 16.6241 0.165305C15.7638 0.118382 14.8918 0.0792789 14.0081 0.0479956C13.1243 0.0167131 12.354 0.00107193 11.6971 0.00107193C11.0245 0.00107193 10.6882 0.00107193 10.6882 0.00107193C10.6882 0.00107193 10.3519 0.00107193 9.67934 0.00107193C9.02241 0.00107193 8.25208 0.0167131 7.36835 0.0479956C6.48462 0.0792789 5.61262 0.118382 4.75235 0.165305C3.89208 0.22787 3.26643 0.313897 2.8754 0.423386C2.65642 0.47031 2.45309 0.548516 2.26539 0.658005C2.0777 0.767493 1.90564 0.900444 1.74923 1.05686C1.59282 1.21327 1.45987 1.38532 1.35038 1.57302C1.24089 1.76071 1.15486 1.96405 1.0923 2.18303C0.88896 2.96509 0.767741 3.96222 0.728638 5.17442C0.689534 6.38661 0.669983 6.99271 0.669983 6.99271C0.669983 6.99271 0.689534 7.60272 0.728638 8.82274C0.767741 10.0428 0.88896 11.0438 1.0923 11.8259C1.15486 12.0292 1.24089 12.2286 1.35038 12.4241C1.45987 12.6197 1.59282 12.7956 1.74923 12.952C1.90564 13.0928 2.0777 13.2218 2.26539 13.3391C2.45309 13.4565 2.65642 13.5386 2.8754 13.5855C3.26643 13.695 3.89208 13.7732 4.75235 13.8201C5.61262 13.8827 6.48462 13.9257 7.36835 13.9492C8.25208 13.9726 9.02241 13.9922 9.67934 14.0078C10.3519 14.0078 10.6882 14.0078 10.6882 14.0078C10.6882 14.0078 11.0245 14.0078 11.6971 14.0078C12.354 13.9922 13.1243 13.9726 14.0081 13.9492C14.8918 13.9257 15.7638 13.8827 16.6241 13.8201C17.4843 13.7732 18.11 13.695 18.501 13.5855C18.72 13.5386 18.9233 13.4565 19.111 13.3391C19.2987 13.2218 19.4708 13.0928 19.6272 12.952C19.7836 12.7956 19.9165 12.6197 20.026 12.4241C20.1355 12.2286 20.2215 12.0292 20.2841 11.8259C20.4874 11.0438 20.6087 10.0428 20.6478 8.82274C20.6869 7.60272 20.7064 6.99271 20.7064 6.99271C20.7064 6.99271 20.6869 6.38661 20.6478 5.17442C20.6087 3.96222 20.4874 2.96509 20.2841 2.18303ZM8.69394 9.99583V3.98959L13.879 6.99271L8.69394 9.99583Z" fill="white"/>
</svg>
